<svg width="1488" height="992" xmlns="http://www.w3.org/2000/svg" xmlns:xlink="http://www.w3.org/1999/xlink" xml:space="preserve" overflow="hidden"><defs><clipPath id="clip0"><rect x="2546" y="412" width="1488" height="992"/></clipPath></defs><g clip-path="url(#clip0)" transform="translate(-2546 -412)"><rect x="2547" y="413" width="1485" height="989" fill="#FFFFFF"/><g><path d="M2894.5 1118.54 3924.5 1118.54M2894.5 1036.53 3924.5 1036.53M2894.5 954.531 3924.5 954.531M2894.5 872.529 3924.5 872.529M2894.5 790.526 3924.5 790.526M2894.5 708.523 3924.5 708.523M2894.5 626.521 3924.5 626.521M2894.5 544.518 3924.5 544.518M2894.5 462.5 3924.5 462.5" stroke="#F2F2F2" stroke-width="3.4375" stroke-linejoin="round" stroke-miterlimit="10" fill="none"/></g><g><path d="M3049.6 462.5 3049.6 1200.5M3140.6 462.5 3140.6 1200.5M3204.61 462.5 3204.61 1200.5M3254.61 462.5 3254.61 1200.5M3295.61 462.5 3295.61 1200.5M3329.61 462.5 3329.61 1200.5M3359.61 462.5 3359.61 1200.5M3385.61 462.5 3385.61 1200.5M3564.62 462.5 3564.62 1200.5M3655.62 462.5 3655.62 1200.5M3719.62 462.5 3719.62 1200.5M3769.62 462.5 3769.62 1200.5M3810.62 462.5 3810.62 1200.5M3844.63 462.5 3844.63 1200.5M3874.63 462.5 3874.63 1200.5M3900.63 462.5 3900.63 1200.5" stroke="#F2F2F2" stroke-width="3.4375" stroke-linejoin="round" stroke-miterlimit="10" fill="none"/></g><g><path d="M3409.61 462.5 3409.61 1200.5M3924.5 462.5 3924.5 1200.5" stroke="#F2F2F2" stroke-width="3.4375" stroke-linejoin="round" stroke-miterlimit="10" fill="none"/></g><g><rect x="2894.5" y="462.5" width="1030" height="738" stroke="#000000" stroke-width="3.4375" stroke-linejoin="round" stroke-miterlimit="10" fill="none"/></g><g><path d="M0 0 0.000360892 738" stroke="#000000" stroke-width="3.4375" stroke-linejoin="round" stroke-miterlimit="10" fill="none" fill-rule="evenodd" transform="matrix(1 0 0 -1 2894.5 1200.5)"/></g><g><path d="M2881.5 1200.5 2894.5 1200.5M2881.5 1118.54 2894.5 1118.54M2881.5 1036.53 2894.5 1036.53M2881.5 954.531 2894.5 954.531M2881.5 872.529 2894.5 872.529M2881.5 790.526 2894.5 790.526M2881.5 708.523 2894.5 708.523M2881.5 626.521 2894.5 626.521M2881.5 544.518 2894.5 544.518M2881.5 462.5 2894.5 462.5" stroke="#000000" stroke-width="3.4375" stroke-linejoin="round" stroke-miterlimit="10" fill="none"/></g><g><path d="M2894.5 1200.5 3924.5 1200.5" stroke="#000000" stroke-width="3.4375" stroke-linejoin="round" stroke-miterlimit="10" fill="none" fill-rule="evenodd"/></g><g><path d="M2894.5 1200.5 2894.5 1210.54M3049.6 1200.5 3049.6 1210.54M3140.6 1200.5 3140.6 1210.54M3204.61 1200.5 3204.61 1210.54M3254.61 1200.5 3254.61 1210.54M3295.61 1200.5 3295.61 1210.54M3329.61 1200.5 3329.61 1210.54M3359.61 1200.5 3359.61 1210.54M3385.61 1200.5 3385.61 1210.54M3409.61 1200.5 3409.61 1210.54M3564.62 1200.5 3564.62 1210.54M3655.62 1200.5 3655.62 1210.54M3719.62 1200.5 3719.62 1210.54M3769.62 1200.5 3769.62 1210.54M3810.62 1200.5 3810.62 1210.54M3844.63 1200.5 3844.63 1210.54M3874.63 1200.5 3874.63 1210.54M3900.63 1200.5 3900.63 1210.54M3924.5 1200.5 3924.5 1210.54M2894.5 1200.5 2894.5 1213.5M3409.61 1200.5 3409.61 1213.5M3924.5 1200.5 3924.5 1213.5" stroke="#000000" stroke-width="3.4375" stroke-linejoin="round" stroke-miterlimit="10" fill="none"/></g><g><path d="M3413.5 1038.5C3439.37 1042.65 3508.64 1053.78 3568.71 1063.42 3628.77 1073.07 3717.75 1087.35 3773.88 1096.37 3830.02 1105.38 3861.63 1110.46 3905.5 1117.5" stroke="#FFB81C" stroke-width="6.875" stroke-linecap="round" stroke-linejoin="round" stroke-miterlimit="10" fill="none"/></g><g><path d="M3413.5 686.5C3439.37 690.601 3527.71 704.606 3568.71 711.106 3609.71 717.606 3644.37 723.101 3659.5 725.5" stroke="#FF0000" stroke-width="6.875" stroke-linecap="round" stroke-linejoin="round" stroke-miterlimit="10" fill="none"/></g><g><path d="M3413.5 697.5C3439.37 701.601 3527.71 715.606 3568.71 722.106 3609.71 728.606 3644.37 734.101 3659.5 736.5" stroke="#FF0000" stroke-width="6.875" stroke-linecap="round" stroke-linejoin="round" stroke-miterlimit="10" stroke-dasharray="13.75 13.75" fill="none"/></g><g><path d="M3244.19 517C3244.19 523.351 3239.04 528.5 3232.69 528.5 3226.34 528.5 3221.19 523.351 3221.19 517 3221.19 510.648 3226.34 505.5 3232.69 505.5 3239.04 505.5 3244.19 510.648 3244.19 517Z" fill="#6F1D77"/><path d="M3195.19 516C3195.19 522.351 3190.04 527.499 3183.69 527.499 3177.34 527.499 3172.19 522.351 3172.19 516 3172.19 509.648 3177.34 504.5 3183.69 504.5 3190.04 504.5 3195.19 509.648 3195.19 516Z" fill="#6F1D77"/><path d="M3251.19 624C3251.19 630.351 3246.04 635.499 3239.69 635.499 3233.34 635.499 3228.19 630.351 3228.19 624 3228.19 617.648 3233.34 612.5 3239.69 612.5 3246.04 612.5 3251.19 617.648 3251.19 624Z" fill="#6F1D77"/></g><g><path d="M3377.19 931C3377.19 937.351 3372.04 942.499 3365.69 942.499 3359.34 942.499 3354.19 937.351 3354.19 931 3354.19 924.648 3359.34 919.5 3365.69 919.5 3372.04 919.5 3377.19 924.648 3377.19 931Z" fill="#FFB81C"/></g><g><path d="M3379.19 584.999C3379.19 591.351 3374.04 596.499 3367.69 596.499 3361.34 596.499 3356.19 591.351 3356.19 584.999 3356.19 578.648 3361.34 573.5 3367.69 573.5 3374.04 573.5 3379.19 578.648 3379.19 584.999Z" fill="#00A6D6"/><path d="M3383.19 541.999C3383.19 548.351 3378.04 553.499 3371.69 553.499 3365.34 553.499 3360.19 548.351 3360.19 541.999 3360.19 535.648 3365.34 530.5 3371.69 530.5 3378.04 530.5 3383.19 535.648 3383.19 541.999Z" fill="#00A6D6"/></g><g><path d="M3780.69 980C3780.69 986.075 3775.76 990.999 3769.69 990.999 3763.61 990.999 3758.69 986.075 3758.69 980 3758.69 973.925 3763.61 969 3769.69 969 3775.76 969 3780.69 973.925 3780.69 980Z" stroke="#00A6D6" stroke-width="3.4375" stroke-linejoin="round" stroke-miterlimit="10" fill="none"/></g><g><text font-family="XCharter,XCharter_MSFontService,sans-serif" font-weight="400" font-size="41" transform="matrix(1 0 0 1 3256.12 512)">RS</text></g><g><text font-family="XCharter,XCharter_MSFontService,sans-serif" font-weight="400" font-size="41" transform="matrix(1 0 0 1 3305.71 512)">-</text></g><g><text font-family="XCharter,XCharter_MSFontService,sans-serif" font-weight="400" font-size="41" transform="matrix(1 0 0 1 3318.87 512)">25</text></g><g><text font-family="XCharter,XCharter_MSFontService,sans-serif" font-weight="400" font-size="41" transform="matrix(1 0 0 1 2925.52 572)">Raptor 2 Vac</text></g><g><text font-family="XCharter,XCharter_MSFontService,sans-serif" font-weight="400" font-size="41" transform="matrix(1 0 0 1 3060.41 634)">RL10A</text></g><g><text font-family="XCharter,XCharter_MSFontService,sans-serif" font-weight="400" font-size="41" transform="matrix(1 0 0 1 3396.29 625)">NERVA</text></g><g><text font-family="XCharter,XCharter_MSFontService,sans-serif" font-weight="400" font-size="41" transform="matrix(1 0 0 1 3400.72 554)">Phoebus</text></g><g><text font-family="XCharter,XCharter_MSFontService,sans-serif" font-weight="400" font-size="41" transform="matrix(1 0 0 1 3551.67 554)">-</text></g><g><text font-family="XCharter,XCharter_MSFontService,sans-serif" font-weight="400" font-size="41" transform="matrix(1 0 0 1 3564.83 554)">2A</text></g><g><text font-family="XCharter,XCharter_MSFontService,sans-serif" font-weight="400" font-size="41" transform="matrix(1 0 0 1 3689.83 1036)">VASIMR</text></g><g><text font-family="XCharter,XCharter_MSFontService,sans-serif" font-weight="400" font-size="41" transform="matrix(1 0 0 1 2776.42 1214)">0.01</text></g><g><text font-family="XCharter,XCharter_MSFontService,sans-serif" font-weight="400" font-size="41" transform="matrix(1 0 0 1 2799.36 1132)">0.1</text></g><g><text font-family="XCharter,XCharter_MSFontService,sans-serif" font-weight="400" font-size="41" transform="matrix(1 0 0 1 2833.76 1050)">1</text></g><g><text font-family="XCharter,XCharter_MSFontService,sans-serif" font-weight="400" font-size="41" transform="matrix(1 0 0 1 2810.82 968)">10</text></g><g><text font-family="XCharter,XCharter_MSFontService,sans-serif" font-weight="400" font-size="41" transform="matrix(1 0 0 1 2787.88 886)">100</text></g><g><text font-family="XCharter,XCharter_MSFontService,sans-serif" font-weight="400" font-size="41" transform="matrix(1 0 0 1 2764.94 804)">1000</text></g><g><text font-family="XCharter,XCharter_MSFontService,sans-serif" font-weight="400" font-size="41" transform="matrix(1 0 0 1 2742 722)">10000</text></g><g><text font-family="XCharter,XCharter_MSFontService,sans-serif" font-weight="400" font-size="41" transform="matrix(1 0 0 1 2719.06 640)">100000</text></g><g><text font-family="XCharter,XCharter_MSFontService,sans-serif" font-weight="400" font-size="41" transform="matrix(1 0 0 1 2696.12 558)">1000000</text></g><g><text font-family="XCharter,XCharter_MSFontService,sans-serif" font-weight="400" font-size="41" transform="matrix(1 0 0 1 2673.18 476)">10000000</text></g><g><text font-family="XCharter,XCharter_MSFontService,sans-serif" font-weight="400" font-size="41" transform="matrix(1 0 0 1 2860.26 1267)">100</text></g><g><text font-family="XCharter,XCharter_MSFontService,sans-serif" font-weight="400" font-size="41" transform="matrix(1 0 0 1 3363.66 1267)">1000</text></g><g><text font-family="XCharter,XCharter_MSFontService,sans-serif" font-weight="400" font-size="41" transform="matrix(1 0 0 1 3867.07 1267)">10000</text></g><g><text font-family="XCharter,XCharter_MSFontService,sans-serif" font-weight="400" font-size="46" transform="matrix(6.12323e-17 -1 1 6.12323e-17 2648.48 939)">Thrust [N]</text></g><g><text font-family="XCharter,XCharter_MSFontService,sans-serif" font-weight="400" font-size="46" transform="matrix(1 0 0 1 3211.8 1334)">Specific Impulse [s]</text></g><g><rect x="2912.5" y="649.5" width="365" height="535" stroke="#BFBFBF" stroke-width="3.4375" stroke-linejoin="round" stroke-miterlimit="10" fill="#FFFFFF"/></g><g><path d="M3020 687.5C3020 693.851 3014.85 699 3008.5 699 3002.15 699 2997 693.851 2997 687.5 2997 681.149 3002.15 676 3008.5 676 3014.85 676 3020 681.149 3020 687.5Z" fill="#6F1D77"/></g><g><text font-family="XCharter,XCharter_MSFontService,sans-serif" font-weight="400" font-size="41" transform="matrix(1 0 0 1 3078.52 701)">Chemical</text></g><g><path d="M2950.5 763.5 3065.5 763.5" stroke="#FFB81C" stroke-width="6.875" stroke-linecap="round" stroke-linejoin="round" stroke-miterlimit="10" fill="none" fill-rule="evenodd"/></g><g><text font-family="XCharter,XCharter_MSFontService,sans-serif" font-weight="400" font-size="41" transform="matrix(1 0 0 1 3078.52 777)">SEP</text></g><g><path d="M3020 840.5C3020 846.851 3014.85 852 3008.5 852 3002.15 852 2997 846.851 2997 840.5 2997 834.149 3002.15 829 3008.5 829 3014.85 829 3020 834.149 3020 840.5Z" fill="#FFB81C"/></g><g><text font-family="XCharter,XCharter_MSFontService,sans-serif" font-weight="400" font-size="41" transform="matrix(1 0 0 1 3078.52 854)">STP</text></g><g><path d="M2950.5 916.5 3065.5 916.5" stroke="#FF0000" stroke-width="6.875" stroke-linecap="round" stroke-linejoin="round" stroke-miterlimit="10" fill="none" fill-rule="evenodd"/></g><g><text font-family="XCharter,XCharter_MSFontService,sans-serif" font-weight="400" font-size="41" transform="matrix(1 0 0 1 3078.52 930)">LTP 94%</text></g><g><path d="M2950.5 993.5 3065.5 993.5" stroke="#FF0000" stroke-width="6.875" stroke-linecap="round" stroke-linejoin="round" stroke-miterlimit="10" stroke-dasharray="13.75 13.75" fill="none" fill-rule="evenodd"/></g><g><text font-family="XCharter,XCharter_MSFontService,sans-serif" font-weight="400" font-size="41" transform="matrix(1 0 0 1 3078.52 1006)">LTP 69%</text></g><g><path d="M3020 1069.5C3020 1075.85 3014.85 1081 3008.5 1081 3002.15 1081 2997 1075.85 2997 1069.5 2997 1063.15 3002.15 1058 3008.5 1058 3014.85 1058 3020 1063.15 3020 1069.5Z" fill="#00A6D6"/></g><g><text font-family="XCharter,XCharter_MSFontService,sans-serif" font-weight="400" font-size="41" transform="matrix(1 0 0 1 3078.52 1083)">NTP</text></g><g><path d="M3019 1146C3019 1152.07 3014.07 1157 3008 1157 3001.93 1157 2997 1152.07 2997 1146 2997 1139.92 3001.93 1135 3008 1135 3014.07 1135 3019 1139.92 3019 1146Z" stroke="#00A6D6" stroke-width="3.4375" stroke-linejoin="round" stroke-miterlimit="10" fill="none"/></g><g><text font-family="XCharter,XCharter_MSFontService,sans-serif" font-weight="400" font-size="41" transform="matrix(1 0 0 1 3078.52 1159)">NEP</text></g><rect x="2547.5" y="413.5" width="1485" height="989" stroke="#D9D9D9" stroke-width="3.4375" stroke-linejoin="round" stroke-miterlimit="10" fill="none"/></g></svg>